# xmcd
#
# Track frame offsets: 
#        150
#        19191
#        37432
#        53326
#        68892
#        84829
#        98670
#        115465
#        125884
#        143882
#        158725
#        174161
#        190806
#        205108
#        224205
#        242348
#        257103
#        274987
#
# Disc length: 3936 seconds
#
# Revision: 0
# Processed by: cddbd v1.5.2PL0 Copyright (c) Steve Scherf et al.
# Submitted via: ExactAudioCopy v0.95b4
#
DISCID=080f5e12
DTITLE=Various Artist - Bundy Country 2 Disc 2
DYEAR=2008
DGENRE=Country
TTITLE0=Adam Brand - Comin' From
TTITLE1=Gary Allan - Watching Airplanes
TTITLE2=Kenny Chesney - Living In Fast Forward
TTITLE3=Travis Collins - Rip It Up
TTITLE4=Gretchen Wilson - All Jacked Up
TTITLE5=Emerson Drive - A Good Man
TTITLE6=Brad Paisley - Celebrity
TTITLE7=The Sunny Cowgirls - Coober Pedy
TTITLE8=The Noll Brothers - Man On A Mission
TTITLE9=Steve Forde - Rodeo Freak
TTITLE10=Drew McAlister - Somewhere Somehow
TTITLE11=Amber Lawrence - Hole In My Head
TTITLE12=Lee Forster - 1000 Headlights
TTITLE13=Stephen Rowe - Broken Hill
TTITLE14=Jayne Denham - Cousin Jude
TTITLE15=Rob Black - Turn Up Your Radio
TTITLE16=Troy Cassar-Daley - The Don't Make 'Em Like That Anymore
TTITLE17=Steve Earle - Copperhead Road
EXTD=
EXTT0=
EXTT1=
EXTT2=
EXTT3=
EXTT4=
EXTT5=
EXTT6=
EXTT7=
EXTT8=
EXTT9=
EXTT10=
EXTT11=
EXTT12=
EXTT13=
EXTT14=
EXTT15=
EXTT16=
EXTT17=
PLAYORDER=
